<svg xmlns="http://www.w3.org/2000/svg" width="421.216" height="85.869" viewBox="0 0 421.216 85.869">
  <g id="Group_1176" data-name="Group 1176" transform="translate(403.757 -1892.705)">
    <g id="Group_1175" data-name="Group 1175" transform="translate(-338.084 1892.705)">
      <path id="Path_2018" data-name="Path 2018" d="M-83.927,2045.519h0l-26.286,26.388c24.072-18.588,48.506,1.5,69.055,16.547l-42.769-42.935Z" transform="translate(126.696 -2002.584)" fill="#0b1f3d"/>
      <path id="Path_2019" data-name="Path 2019" d="M-126.339,1935.64l26.4-26.5c-24.072,18.588-48.616-1.386-69.165-16.437l42.769,42.934Z" transform="translate(169.108 -1892.705)" fill="#0b1f3d"/>
    </g>
    <path id="Path_2020" data-name="Path 2020" d="M-403.757,1970.27h4.893v31.219h9.293V1959.2l-14.186,4.664Z" transform="translate(0 -47.813)" fill="#0b1f3d"/>
    <path id="Path_2021" data-name="Path 2021" d="M-292.987,1956.986c-12.885,0-16.912,14.241-16.912,21.891,0,8.83,4.77,21.766,16.912,21.766s16.912-12.936,16.912-21.766C-276.075,1971.227-280.1,1956.986-292.987,1956.986Zm0,35.2c-6.009,0-7.62-7.525-7.62-13.371,0-5.348,1.611-13.371,7.62-13.371,6.133,0,7.62,8.023,7.62,13.495C-285.367,1984.536-287.1,1992.185-292.987,1992.185Z" transform="translate(-67.589 -46.22)" fill="#0b1f3d"/>
    <path id="Path_2022" data-name="Path 2022" d="M156.46,2001.489h9.292v-16.978h14.5v-8.458h-14.5v-8.4h15.116V1959.2H156.46Z" transform="translate(-403.425 -47.813)" fill="#0b1f3d"/>
    <rect id="Rectangle_2248" data-name="Rectangle 2248" width="9.292" height="42.288" transform="translate(-209.543 1911.387)" fill="#0b1f3d"/>
    <path id="Path_2023" data-name="Path 2023" d="M395.859,1985.568l-14.5-26.368H372.07v42.288h9.292V1975.12l14.5,26.368h9.292V1959.2h-9.292Z" transform="translate(-558.691 -47.813)" fill="#0b1f3d"/>
    <path id="Path_2024" data-name="Path 2024" d="M551.5,1959.2H538.982v42.288H551.5c11.957,0,20.94-9.2,20.94-21.145S563.389,1959.2,551.5,1959.2Zm-.557,33.706H548.15v-25.061h2.788c7.186,0,12.018,5.472,12.018,12.5S558.062,1992.906,550.938,1992.906Z" transform="translate(-678.888 -47.813)" fill="#0b1f3d"/>
    <path id="Path_2025" data-name="Path 2025" d="M701.69,2001.489H726.1v-8.458H710.982v-8.52h14.5v-8.458h-14.5v-8.4H726.1V1959.2H701.69Z" transform="translate(-796.058 -47.813)" fill="#0b1f3d"/>
    <path id="Path_2026" data-name="Path 2026" d="M866.292,1972.757c0-8.022-6.071-13.557-12.885-13.557h-15.8v42.288H846.9v-15.112h.062L857,2001.489H868.77l-12.08-15.547C862.017,1984.636,866.292,1979.909,866.292,1972.757Zm-14.434,6.281H846.9v-12.5h4.957a5.883,5.883,0,0,1,5.575,6.219C857.434,1976.8,854.584,1979.038,851.858,1979.038Z" transform="translate(-893.937 -47.813)" fill="#0b1f3d"/>
    <path id="Path_2027" data-name="Path 2027" d="M986.042,1969.051c0-3.171,3.655-4.416,6.257-4.416,4.647,0,7.186,1.431,7.682,5.846h8.982c-.309-9.639-8.115-13.495-16.788-13.495-7.682,0-15.735,4.1-15.735,12.811,0,15.61,24.346,10.323,24.346,18.533,0,3.793-4.585,4.974-7.5,4.974-4.584,0-8.548-2.3-8.8-7.338h-9.416c.062,10.323,8.549,14.925,17.842,14.925,8.611,0,17.47-3.669,17.47-13.619C1010.389,1971.165,986.042,1976.575,986.042,1969.051Z" transform="translate(-992.93 -46.22)" fill="#0b1f3d"/>
  </g>
</svg>
